<svg width="48" height="48" viewBox="0 0 48 48" fill="none" xmlns="http://www.w3.org/2000/svg">
<path d="M41.69 10.12L31.69 5.95C31.25 5.77 30.76 5.67 30.25 5.67C29.13 5.67 28.12 6.16 27.43 6.95L18.73 16.88L13.66 11.46C13.2 10.97 12.55 10.67 11.83 10.67C11.27 10.67 10.75 10.85 10.33 11.17L7 13.67C6.39 14.12 6 14.85 6 15.67C6 16.3 6.23 16.87 6.62 17.31L12.48 24L6.62 30.69C6.23 31.13 6 31.7 6 32.33C6 33.15 6.39 33.88 7 34.33L10.33 36.83C10.75 37.15 11.27 37.33 11.83 37.33C12.55 37.33 13.2 37.03 13.66 36.54L18.73 31.12L27.43 41.05C28.12 41.84 29.13 42.33 30.25 42.33C30.76 42.33 31.25 42.23 31.69 42.05L41.69 37.88C43.05 37.31 44 35.98 44 34.42V13.58C44 12.02 43.05 10.69 41.69 10.12ZM25.38 24L34 14.78V33.22L25.38 24Z" fill="white"/>
</svg>
