<svg width="48" height="48" viewBox="0 0 48 48" fill="none" xmlns="http://www.w3.org/2000/svg">
<path d="M45.23 7.34C44.7 7.12 44.11 7 43.5 7C42.21 7 41.05 7.54 40.23 8.41L36 12.87L25.45 24L17.43 32.46L11.18 39.06C10.63 39.64 9.86 40 9 40C8.33 40 7.7 39.78 7.2 39.4L3.2 36.4C2.47 35.85 2 34.98 2 34C2 33.23 2.29 32.54 2.76 32.01L9.89 24L17.43 15.54L28.14 3.51C28.96 2.58 30.16 2 31.5 2C32.11 2 32.7 2.12 33.23 2.34L45.23 7.34Z" fill="url(#paint0_linear_4560_588)"/>
<path d="M45.23 7.34C44.7 7.12 44.11 7 43.5 7C42.21 7 41.05 7.54 40.23 8.41L36 12.87L25.45 24L17.43 32.46L11.18 39.06C10.63 39.64 9.86 40 9 40C8.33 40 7.7 39.78 7.2 39.4L3.2 36.4C2.47 35.85 2 34.98 2 34C2 33.23 2.29 32.54 2.76 32.01L9.89 24L17.43 15.54L28.14 3.51C28.96 2.58 30.16 2 31.5 2C32.11 2 32.7 2.12 33.23 2.34L45.23 7.34Z" fill="url(#paint1_linear_4560_588)" fill-opacity="0.3"/>
<path d="M45.23 40.66L33.23 45.66C32.7 45.88 32.11 46 31.5 46C30.16 46 28.96 45.42 28.14 44.49L17.43 32.46L9.89 24L2.76 15.99C2.29 15.46 2 14.77 2 14C2 13.02 2.47 12.15 3.2 11.6L7.2 8.6C7.7 8.22 8.33 8 9 8C9.86 8 10.63 8.36 11.18 8.94L17.43 15.54L25.45 24L36 35.13L40.23 39.59C41.05 40.46 42.21 41 43.5 41C44.11 41 44.7 40.88 45.23 40.66Z" fill="url(#paint2_linear_4560_588)"/>
<path d="M45.23 40.66L33.23 45.66C32.7 45.88 32.11 46 31.5 46C30.16 46 28.96 45.42 28.14 44.49L17.43 32.46L9.89 24L2.76 15.99C2.29 15.46 2 14.77 2 14C2 13.02 2.47 12.15 3.2 11.6L7.2 8.6C7.7 8.22 8.33 8 9 8C9.86 8 10.63 8.36 11.18 8.94L17.43 15.54L25.45 24L36 35.13L40.23 39.59C41.05 40.46 42.21 41 43.5 41C44.11 41 44.7 40.88 45.23 40.66Z" fill="url(#paint3_radial_4560_588)"/>
<path d="M48 11.5V36.5C48 38.37 46.86 39.98 45.23 40.66L33.23 45.66C34.86 44.98 36 43.37 36 41.5V6.49997C36 4.62997 34.86 3.01997 33.23 2.33997L45.23 7.33997C46.86 8.01997 48 9.62997 48 11.5Z" fill="url(#paint4_linear_4560_588)"/>
<defs>
<linearGradient id="paint0_linear_4560_588" x1="39.0727" y1="-2.14102" x2="6.10451" y2="43.5926" gradientUnits="userSpaceOnUse">
<stop offset="0.0527041" stop-color="#004695"/>
<stop offset="0.319612" stop-color="#0067BF"/>
<stop offset="0.790525" stop-color="#0078D4"/>
<stop offset="0.99373" stop-color="#16BBDA"/>
</linearGradient>
<linearGradient id="paint1_linear_4560_588" x1="24.2974" y1="19.5385" x2="8.90731" y2="30.4455" gradientUnits="userSpaceOnUse">
<stop stop-color="#004695" stop-opacity="0"/>
<stop offset="0.164241" stop-color="#004695" stop-opacity="0.7"/>
<stop offset="0.752918" stop-color="#004695"/>
<stop offset="1" stop-color="#004695" stop-opacity="0"/>
</linearGradient>
<linearGradient id="paint2_linear_4560_588" x1="7.93648" y1="8" x2="29.376" y2="51.5156" gradientUnits="userSpaceOnUse">
<stop offset="0.0374343" stop-color="#43E5CA"/>
<stop offset="0.187907" stop-color="#26CFE8"/>
<stop offset="0.349289" stop-color="#0FAFFF"/>
<stop offset="0.659163" stop-color="#367AF2"/>
</linearGradient>
<radialGradient id="paint3_radial_4560_588" cx="0" cy="0" r="1" gradientTransform="matrix(40.9643 15.8333 -37.4385 89.8853 -1.27714 28.4615)" gradientUnits="userSpaceOnUse">
<stop offset="0.611142" stop-color="#367AF2" stop-opacity="0"/>
<stop offset="0.977982" stop-color="#102784"/>
</radialGradient>
<linearGradient id="paint4_linear_4560_588" x1="41.6545" y1="-2.49988" x2="41.6545" y2="50.5001" gradientUnits="userSpaceOnUse">
<stop stop-color="#98F0B0"/>
<stop offset="0.284593" stop-color="#2BDABE"/>
<stop offset="0.697924" stop-color="#0094F0"/>
<stop offset="0.955447" stop-color="#2764E7"/>
</linearGradient>
</defs>
</svg>
